<mxfile host="Electron" agent="Mozilla/5.0 (Windows NT 10.0; Win64; x64) AppleWebKit/537.36 (KHTML, like Gecko) draw.io/24.7.5 Chrome/126.0.6478.183 Electron/31.3.0 Safari/537.36" version="24.7.5">
  <diagram name="Page-1" id="BDrtj3JGsCEvPcIaF49U">
    <mxGraphModel dx="932" dy="1436" grid="1" gridSize="10" guides="1" tooltips="1" connect="1" arrows="1" fold="1" page="1" pageScale="1" pageWidth="4681" pageHeight="3300" math="0" shadow="0">
      <root>
        <mxCell id="0" />
        <mxCell id="1" parent="0" />
        <mxCell id="k5x8B4rbmalGBhYCOjWL-4" style="edgeStyle=orthogonalEdgeStyle;rounded=0;orthogonalLoop=1;jettySize=auto;html=1;exitX=0.5;exitY=0;exitDx=0;exitDy=0;entryX=0;entryY=0.5;entryDx=0;entryDy=0;" edge="1" parent="1" source="k5x8B4rbmalGBhYCOjWL-1" target="k5x8B4rbmalGBhYCOjWL-2">
          <mxGeometry relative="1" as="geometry" />
        </mxCell>
        <mxCell id="k5x8B4rbmalGBhYCOjWL-5" style="edgeStyle=orthogonalEdgeStyle;rounded=0;orthogonalLoop=1;jettySize=auto;html=1;exitX=0.5;exitY=1;exitDx=0;exitDy=0;entryX=0;entryY=0.5;entryDx=0;entryDy=0;" edge="1" parent="1" source="k5x8B4rbmalGBhYCOjWL-1" target="k5x8B4rbmalGBhYCOjWL-3">
          <mxGeometry relative="1" as="geometry" />
        </mxCell>
        <mxCell id="k5x8B4rbmalGBhYCOjWL-1" value="&lt;b&gt;&lt;font color=&quot;#ff0000&quot; style=&quot;font-size: 19px;&quot;&gt;Order&lt;/font&gt;&lt;/b&gt;" style="rounded=0;whiteSpace=wrap;html=1;fillColor=#fff2cc;strokeColor=#d6b656;" vertex="1" parent="1">
          <mxGeometry x="130" y="250" width="120" height="60" as="geometry" />
        </mxCell>
        <mxCell id="k5x8B4rbmalGBhYCOjWL-7" value="" style="edgeStyle=orthogonalEdgeStyle;rounded=0;orthogonalLoop=1;jettySize=auto;html=1;" edge="1" parent="1" source="k5x8B4rbmalGBhYCOjWL-2" target="k5x8B4rbmalGBhYCOjWL-6">
          <mxGeometry relative="1" as="geometry" />
        </mxCell>
        <mxCell id="k5x8B4rbmalGBhYCOjWL-2" value="&lt;b&gt;&lt;font color=&quot;#ff0000&quot; style=&quot;font-size: 19px;&quot;&gt;Invoice&lt;/font&gt;&lt;/b&gt;" style="rounded=0;whiteSpace=wrap;html=1;fillColor=#fff2cc;strokeColor=#d6b656;" vertex="1" parent="1">
          <mxGeometry x="353" y="150" width="120" height="60" as="geometry" />
        </mxCell>
        <mxCell id="k5x8B4rbmalGBhYCOjWL-11" value="" style="edgeStyle=orthogonalEdgeStyle;rounded=0;orthogonalLoop=1;jettySize=auto;html=1;" edge="1" parent="1" source="k5x8B4rbmalGBhYCOjWL-3" target="k5x8B4rbmalGBhYCOjWL-10">
          <mxGeometry relative="1" as="geometry" />
        </mxCell>
        <mxCell id="k5x8B4rbmalGBhYCOjWL-3" value="&lt;b&gt;&lt;font color=&quot;#ff0000&quot; style=&quot;font-size: 19px;&quot;&gt;Availability&lt;/font&gt;&lt;/b&gt;" style="rounded=0;whiteSpace=wrap;html=1;fillColor=#fff2cc;strokeColor=#d6b656;" vertex="1" parent="1">
          <mxGeometry x="550" y="380" width="120" height="60" as="geometry" />
        </mxCell>
        <mxCell id="k5x8B4rbmalGBhYCOjWL-9" value="" style="edgeStyle=orthogonalEdgeStyle;rounded=0;orthogonalLoop=1;jettySize=auto;html=1;" edge="1" parent="1" source="k5x8B4rbmalGBhYCOjWL-6" target="k5x8B4rbmalGBhYCOjWL-8">
          <mxGeometry relative="1" as="geometry" />
        </mxCell>
        <mxCell id="k5x8B4rbmalGBhYCOjWL-6" value="&lt;b&gt;&lt;font style=&quot;font-size: 19px;&quot; color=&quot;#ff0000&quot;&gt;Shipping&lt;/font&gt;&lt;/b&gt;" style="whiteSpace=wrap;html=1;fillColor=#fff2cc;strokeColor=#d6b656;rounded=0;" vertex="1" parent="1">
          <mxGeometry x="670" y="150" width="180" height="60" as="geometry" />
        </mxCell>
        <mxCell id="k5x8B4rbmalGBhYCOjWL-8" value="&lt;b&gt;&lt;font style=&quot;font-size: 19px;&quot; color=&quot;#ff0000&quot;&gt;FreightCost&lt;/font&gt;&lt;/b&gt;" style="whiteSpace=wrap;html=1;fillColor=#fff2cc;strokeColor=#d6b656;rounded=0;" vertex="1" parent="1">
          <mxGeometry x="1092" y="150" width="180" height="60" as="geometry" />
        </mxCell>
        <mxCell id="k5x8B4rbmalGBhYCOjWL-16" style="rounded=0;orthogonalLoop=1;jettySize=auto;html=1;exitX=1;exitY=0.5;exitDx=0;exitDy=0;entryX=0.5;entryY=1;entryDx=0;entryDy=0;" edge="1" parent="1" source="k5x8B4rbmalGBhYCOjWL-10" target="k5x8B4rbmalGBhYCOjWL-14">
          <mxGeometry relative="1" as="geometry" />
        </mxCell>
        <mxCell id="k5x8B4rbmalGBhYCOjWL-10" value="&lt;b&gt;&lt;font style=&quot;font-size: 19px;&quot; color=&quot;#ff0000&quot;&gt;ShippingDate&lt;/font&gt;&lt;/b&gt;" style="whiteSpace=wrap;html=1;fillColor=#fff2cc;strokeColor=#d6b656;rounded=0;" vertex="1" parent="1">
          <mxGeometry x="1092" y="380" width="180" height="60" as="geometry" />
        </mxCell>
        <mxCell id="k5x8B4rbmalGBhYCOjWL-13" value="&lt;b&gt;&lt;font color=&quot;#0000ff&quot; style=&quot;font-size: 19px;&quot;&gt;F&amp;lt;Order,Invoice&amp;gt;&lt;/font&gt;&lt;/b&gt;" style="text;html=1;align=center;verticalAlign=middle;whiteSpace=wrap;rounded=0;" vertex="1" parent="1">
          <mxGeometry x="173" y="150" width="180" height="30" as="geometry" />
        </mxCell>
        <mxCell id="k5x8B4rbmalGBhYCOjWL-14" value="&lt;b&gt;&lt;font style=&quot;font-size: 19px;&quot; color=&quot;#ff0000&quot;&gt;AdjustCost&lt;/font&gt;&lt;/b&gt;" style="whiteSpace=wrap;html=1;fillColor=#d5e8d4;strokeColor=#82b366;rounded=0;" vertex="1" parent="1">
          <mxGeometry x="1312" y="270" width="180" height="60" as="geometry" />
        </mxCell>
        <mxCell id="k5x8B4rbmalGBhYCOjWL-15" style="rounded=0;orthogonalLoop=1;jettySize=auto;html=1;exitX=1;exitY=0.5;exitDx=0;exitDy=0;entryX=0.439;entryY=-0.043;entryDx=0;entryDy=0;entryPerimeter=0;" edge="1" parent="1" source="k5x8B4rbmalGBhYCOjWL-8" target="k5x8B4rbmalGBhYCOjWL-14">
          <mxGeometry relative="1" as="geometry" />
        </mxCell>
        <mxCell id="k5x8B4rbmalGBhYCOjWL-17" value="&lt;b&gt;&lt;font style=&quot;font-size: 19px;&quot; color=&quot;#ff0000&quot;&gt;F&amp;lt;Order,Availability&amp;gt;&lt;/font&gt;&lt;/b&gt;" style="text;html=1;align=center;verticalAlign=middle;whiteSpace=wrap;rounded=0;" vertex="1" parent="1">
          <mxGeometry x="240" y="380" width="180" height="30" as="geometry" />
        </mxCell>
        <mxCell id="k5x8B4rbmalGBhYCOjWL-18" value="&lt;b&gt;&lt;font color=&quot;#0000ff&quot; style=&quot;font-size: 19px;&quot;&gt;F&amp;lt;Order,Shipping&amp;gt;&lt;/font&gt;&lt;/b&gt;" style="text;html=1;align=center;verticalAlign=middle;whiteSpace=wrap;rounded=0;" vertex="1" parent="1">
          <mxGeometry x="480" y="150" width="180" height="30" as="geometry" />
        </mxCell>
        <mxCell id="k5x8B4rbmalGBhYCOjWL-19" value="&lt;b&gt;&lt;font style=&quot;font-size: 19px;&quot; color=&quot;#ff0000&quot;&gt;F&amp;lt;Availability,&lt;/font&gt;&lt;/b&gt;&lt;b&gt;&lt;font style=&quot;font-size: 19px;&quot; color=&quot;#ff0000&quot;&gt;ShippingDate&lt;/font&gt;&lt;/b&gt;&lt;b&gt;&lt;font style=&quot;font-size: 19px;&quot; color=&quot;#ff0000&quot;&gt;&amp;gt;&lt;/font&gt;&lt;/b&gt;" style="text;html=1;align=center;verticalAlign=middle;whiteSpace=wrap;rounded=0;" vertex="1" parent="1">
          <mxGeometry x="780" y="380" width="180" height="30" as="geometry" />
        </mxCell>
        <mxCell id="k5x8B4rbmalGBhYCOjWL-20" value="&lt;font color=&quot;#0000ff&quot;&gt;&lt;b&gt;&lt;font style=&quot;font-size: 19px;&quot;&gt;F&amp;lt;Shipping,&lt;/font&gt;&lt;/b&gt;&lt;b&gt;&lt;font style=&quot;font-size: 19px;&quot;&gt;FreightCost&lt;/font&gt;&lt;/b&gt;&lt;b&gt;&lt;font style=&quot;font-size: 19px;&quot;&gt;&amp;gt;&lt;/font&gt;&lt;/b&gt;&lt;/font&gt;" style="text;html=1;align=center;verticalAlign=middle;whiteSpace=wrap;rounded=0;" vertex="1" parent="1">
          <mxGeometry x="880" y="150" width="180" height="30" as="geometry" />
        </mxCell>
        <mxCell id="k5x8B4rbmalGBhYCOjWL-23" value="&lt;b&gt;&lt;font color=&quot;#ff0000&quot; style=&quot;font-size: 19px;&quot;&gt;Order&lt;/font&gt;&lt;/b&gt;" style="rounded=0;whiteSpace=wrap;html=1;fillColor=#fff2cc;strokeColor=#d6b656;" vertex="1" parent="1">
          <mxGeometry x="160" y="660" width="120" height="60" as="geometry" />
        </mxCell>
        <mxCell id="k5x8B4rbmalGBhYCOjWL-26" value="" style="edgeStyle=orthogonalEdgeStyle;rounded=0;orthogonalLoop=1;jettySize=auto;html=1;exitX=0.5;exitY=1;exitDx=0;exitDy=0;entryX=0;entryY=0.5;entryDx=0;entryDy=0;" edge="1" parent="1" source="k5x8B4rbmalGBhYCOjWL-23" target="k5x8B4rbmalGBhYCOjWL-32">
          <mxGeometry relative="1" as="geometry">
            <mxPoint x="503" y="820" as="sourcePoint" />
          </mxGeometry>
        </mxCell>
        <mxCell id="k5x8B4rbmalGBhYCOjWL-28" value="" style="edgeStyle=orthogonalEdgeStyle;rounded=0;orthogonalLoop=1;jettySize=auto;html=1;exitX=0.5;exitY=0;exitDx=0;exitDy=0;entryX=0;entryY=0.5;entryDx=0;entryDy=0;" edge="1" parent="1" source="k5x8B4rbmalGBhYCOjWL-23" target="k5x8B4rbmalGBhYCOjWL-30">
          <mxGeometry relative="1" as="geometry">
            <mxPoint x="862" y="590" as="sourcePoint" />
          </mxGeometry>
        </mxCell>
        <mxCell id="k5x8B4rbmalGBhYCOjWL-42" style="rounded=0;orthogonalLoop=1;jettySize=auto;html=1;entryX=0;entryY=0.5;entryDx=0;entryDy=0;" edge="1" parent="1" source="k5x8B4rbmalGBhYCOjWL-30" target="k5x8B4rbmalGBhYCOjWL-39">
          <mxGeometry relative="1" as="geometry" />
        </mxCell>
        <mxCell id="k5x8B4rbmalGBhYCOjWL-30" value="&lt;b&gt;&lt;font style=&quot;font-size: 19px;&quot; color=&quot;#ff0000&quot;&gt;FreightCost&lt;/font&gt;&lt;/b&gt;" style="whiteSpace=wrap;html=1;fillColor=#fff2cc;strokeColor=#d6b656;rounded=0;" vertex="1" parent="1">
          <mxGeometry x="490" y="570" width="180" height="60" as="geometry" />
        </mxCell>
        <mxCell id="k5x8B4rbmalGBhYCOjWL-41" style="rounded=0;orthogonalLoop=1;jettySize=auto;html=1;entryX=0;entryY=0.5;entryDx=0;entryDy=0;" edge="1" parent="1" source="k5x8B4rbmalGBhYCOjWL-32" target="k5x8B4rbmalGBhYCOjWL-39">
          <mxGeometry relative="1" as="geometry" />
        </mxCell>
        <mxCell id="k5x8B4rbmalGBhYCOjWL-32" value="&lt;b&gt;&lt;font style=&quot;font-size: 19px;&quot; color=&quot;#ff0000&quot;&gt;ShippingDate&lt;/font&gt;&lt;/b&gt;" style="whiteSpace=wrap;html=1;fillColor=#fff2cc;strokeColor=#d6b656;rounded=0;" vertex="1" parent="1">
          <mxGeometry x="473" y="750" width="180" height="60" as="geometry" />
        </mxCell>
        <mxCell id="k5x8B4rbmalGBhYCOjWL-37" value="&lt;b&gt;&lt;font style=&quot;font-size: 19px;&quot; color=&quot;#ff0000&quot;&gt;F&amp;lt;Order,&lt;/font&gt;&lt;/b&gt;&lt;b&gt;&lt;font style=&quot;font-size: 19px;&quot; color=&quot;#ff0000&quot;&gt;ShippingDate&lt;/font&gt;&lt;/b&gt;&lt;b&gt;&lt;font style=&quot;font-size: 19px;&quot; color=&quot;#ff0000&quot;&gt;&amp;gt;&lt;/font&gt;&lt;/b&gt;" style="text;html=1;align=center;verticalAlign=middle;whiteSpace=wrap;rounded=0;" vertex="1" parent="1">
          <mxGeometry x="250" y="790" width="180" height="30" as="geometry" />
        </mxCell>
        <mxCell id="k5x8B4rbmalGBhYCOjWL-38" value="&lt;font color=&quot;#0000ff&quot;&gt;&lt;b&gt;&lt;font style=&quot;font-size: 19px;&quot;&gt;F&amp;lt;Order,&lt;/font&gt;&lt;/b&gt;&lt;b&gt;&lt;font style=&quot;font-size: 19px;&quot;&gt;FreightCost&lt;/font&gt;&lt;/b&gt;&lt;b&gt;&lt;font style=&quot;font-size: 19px;&quot;&gt;&amp;gt;&lt;/font&gt;&lt;/b&gt;&lt;/font&gt;" style="text;html=1;align=center;verticalAlign=middle;whiteSpace=wrap;rounded=0;" vertex="1" parent="1">
          <mxGeometry x="250" y="560" width="180" height="30" as="geometry" />
        </mxCell>
        <mxCell id="k5x8B4rbmalGBhYCOjWL-43" style="edgeStyle=orthogonalEdgeStyle;rounded=0;orthogonalLoop=1;jettySize=auto;html=1;entryX=0.5;entryY=0;entryDx=0;entryDy=0;" edge="1" parent="1" source="k5x8B4rbmalGBhYCOjWL-39" target="k5x8B4rbmalGBhYCOjWL-40">
          <mxGeometry relative="1" as="geometry" />
        </mxCell>
        <mxCell id="k5x8B4rbmalGBhYCOjWL-39" value="&lt;b&gt;&lt;font style=&quot;font-size: 19px;&quot; color=&quot;#ff0000&quot;&gt;AdjustCost&lt;/font&gt;&lt;/b&gt;&lt;div&gt;&lt;b&gt;&lt;font style=&quot;font-size: 19px;&quot; color=&quot;#ff0000&quot;&gt;(Order,&amp;nbsp;&lt;/font&gt;&lt;/b&gt;&lt;b&gt;&lt;font style=&quot;font-size: 19px;&quot; color=&quot;#ff0000&quot;&gt;F&amp;lt;Order,&lt;/font&gt;&lt;/b&gt;&lt;b&gt;&lt;font style=&quot;font-size: 19px;&quot; color=&quot;#ff0000&quot;&gt;FreightCost&lt;/font&gt;&lt;/b&gt;&lt;b&gt;&lt;font style=&quot;font-size: 19px;&quot; color=&quot;#ff0000&quot;&gt;&amp;gt;,&amp;nbsp;&lt;/font&gt;&lt;/b&gt;&lt;b style=&quot;background-color: initial;&quot;&gt;&lt;font style=&quot;font-size: 19px;&quot; color=&quot;#ff0000&quot;&gt;F&amp;lt;Order,&lt;/font&gt;&lt;/b&gt;&lt;b style=&quot;background-color: initial;&quot;&gt;&lt;font style=&quot;font-size: 19px;&quot; color=&quot;#ff0000&quot;&gt;ShippingDate&lt;/font&gt;&lt;/b&gt;&lt;b style=&quot;background-color: initial;&quot;&gt;&lt;font style=&quot;font-size: 19px;&quot; color=&quot;#ff0000&quot;&gt;&amp;gt;,&amp;nbsp; &amp;nbsp;&lt;/font&gt;&lt;font style=&quot;font-size: 19px;&quot;&gt;double&lt;/font&gt;&lt;/b&gt;&lt;b style=&quot;background-color: initial;&quot;&gt;&lt;font style=&quot;font-size: 19px;&quot; color=&quot;#ff0000&quot;&gt;)&lt;/font&gt;&lt;/b&gt;&lt;/div&gt;" style="whiteSpace=wrap;html=1;fillColor=#d5e8d4;strokeColor=#82b366;rounded=0;" vertex="1" parent="1">
          <mxGeometry x="740" y="680" width="610" height="60" as="geometry" />
        </mxCell>
        <mxCell id="k5x8B4rbmalGBhYCOjWL-40" value="&lt;b&gt;&lt;font style=&quot;font-size: 19px;&quot; color=&quot;#ff0000&quot;&gt;CalcAdjustedCostForOrder&lt;/font&gt;&lt;/b&gt;&lt;div&gt;&lt;b&gt;&lt;font style=&quot;font-size: 19px;&quot; color=&quot;#ff0000&quot;&gt;(Order&lt;/font&gt;&lt;/b&gt;&lt;b style=&quot;background-color: initial;&quot;&gt;&lt;font style=&quot;font-size: 19px;&quot; color=&quot;#ff0000&quot;&gt;,&amp;nbsp; &amp;nbsp;&lt;/font&gt;&lt;font style=&quot;font-size: 19px;&quot;&gt;double&lt;/font&gt;&lt;/b&gt;&lt;b style=&quot;background-color: initial;&quot;&gt;&lt;font style=&quot;font-size: 19px;&quot; color=&quot;#ff0000&quot;&gt;)&lt;/font&gt;&lt;/b&gt;&lt;/div&gt;" style="whiteSpace=wrap;html=1;fillColor=#d5e8d4;strokeColor=#82b366;rounded=0;" vertex="1" parent="1">
          <mxGeometry x="740" y="830" width="610" height="60" as="geometry" />
        </mxCell>
        <mxCell id="k5x8B4rbmalGBhYCOjWL-46" style="edgeStyle=orthogonalEdgeStyle;rounded=0;orthogonalLoop=1;jettySize=auto;html=1;exitX=1;exitY=0.5;exitDx=0;exitDy=0;entryX=0;entryY=0.5;entryDx=0;entryDy=0;" edge="1" parent="1" source="k5x8B4rbmalGBhYCOjWL-44" target="k5x8B4rbmalGBhYCOjWL-45">
          <mxGeometry relative="1" as="geometry" />
        </mxCell>
        <mxCell id="k5x8B4rbmalGBhYCOjWL-44" value="&lt;font style=&quot;font-size: 14px;&quot;&gt;&lt;b&gt;&lt;font style=&quot;font-size: 14px;&quot; color=&quot;#ff0000&quot;&gt;Order,&amp;nbsp;&lt;/font&gt;&lt;/b&gt;&lt;b&gt;&lt;font style=&quot;font-size: 14px;&quot; color=&quot;#ff0000&quot;&gt;F&amp;lt;Order,&lt;/font&gt;&lt;/b&gt;&lt;b&gt;&lt;font style=&quot;font-size: 14px;&quot; color=&quot;#ff0000&quot;&gt;FreightCost&lt;/font&gt;&lt;/b&gt;&lt;b&gt;&lt;font style=&quot;font-size: 14px;&quot; color=&quot;#ff0000&quot;&gt;&amp;gt;,&amp;nbsp;&lt;/font&gt;&lt;/b&gt;&lt;b style=&quot;background-color: initial;&quot;&gt;&lt;font style=&quot;font-size: 14px;&quot; color=&quot;#ff0000&quot;&gt;F&amp;lt;Order,&lt;/font&gt;&lt;/b&gt;&lt;b style=&quot;background-color: initial;&quot;&gt;&lt;font style=&quot;font-size: 14px;&quot; color=&quot;#ff0000&quot;&gt;ShippingDate&lt;/font&gt;&lt;/b&gt;&lt;b style=&quot;background-color: initial;&quot;&gt;&lt;font style=&quot;font-size: 14px;&quot; color=&quot;#ff0000&quot;&gt;&amp;gt;&lt;/font&gt;&lt;/b&gt;&lt;/font&gt;" style="rounded=0;whiteSpace=wrap;html=1;fillColor=#dae8fc;strokeColor=#6c8ebf;" vertex="1" parent="1">
          <mxGeometry x="740" y="650" width="380" height="30" as="geometry" />
        </mxCell>
        <mxCell id="k5x8B4rbmalGBhYCOjWL-45" value="&lt;font color=&quot;#ff0000&quot;&gt;&lt;span style=&quot;font-size: 14px;&quot;&gt;&lt;b&gt;double&lt;/b&gt;&lt;/span&gt;&lt;/font&gt;" style="rounded=0;whiteSpace=wrap;html=1;fillColor=#dae8fc;strokeColor=#6c8ebf;" vertex="1" parent="1">
          <mxGeometry x="1210" y="650" width="140" height="30" as="geometry" />
        </mxCell>
        <mxCell id="k5x8B4rbmalGBhYCOjWL-47" style="edgeStyle=orthogonalEdgeStyle;rounded=0;orthogonalLoop=1;jettySize=auto;html=1;exitX=1;exitY=0.5;exitDx=0;exitDy=0;entryX=0;entryY=0.5;entryDx=0;entryDy=0;" edge="1" parent="1" source="k5x8B4rbmalGBhYCOjWL-48" target="k5x8B4rbmalGBhYCOjWL-49">
          <mxGeometry relative="1" as="geometry" />
        </mxCell>
        <mxCell id="k5x8B4rbmalGBhYCOjWL-48" value="&lt;font style=&quot;font-size: 14px;&quot;&gt;&lt;b&gt;&lt;font style=&quot;font-size: 14px;&quot; color=&quot;#ff0000&quot;&gt;Order&lt;/font&gt;&lt;/b&gt;&lt;/font&gt;" style="rounded=0;whiteSpace=wrap;html=1;fillColor=#dae8fc;strokeColor=#6c8ebf;" vertex="1" parent="1">
          <mxGeometry x="740" y="890" width="380" height="30" as="geometry" />
        </mxCell>
        <mxCell id="k5x8B4rbmalGBhYCOjWL-49" value="&lt;font color=&quot;#ff0000&quot;&gt;&lt;span style=&quot;font-size: 14px;&quot;&gt;&lt;b&gt;double&lt;/b&gt;&lt;/span&gt;&lt;/font&gt;" style="rounded=0;whiteSpace=wrap;html=1;fillColor=#dae8fc;strokeColor=#6c8ebf;" vertex="1" parent="1">
          <mxGeometry x="1210" y="890" width="140" height="30" as="geometry" />
        </mxCell>
      </root>
    </mxGraphModel>
  </diagram>
</mxfile>
